<?xml version="1.0" standalone="no"?><!DOCTYPE svg PUBLIC "-//W3C//DTD SVG 1.1//EN" "http://www.w3.org/Graphics/SVG/1.1/DTD/svg11.dtd"><svg t="1713099764659" class="icon" viewBox="0 0 1024 1024" version="1.1" xmlns="http://www.w3.org/2000/svg" p-id="2746" width="16" height="16" xmlns:xlink="http://www.w3.org/1999/xlink"><path d="M487.5 673.5c-99.5 0-180.5-81.6-180.5-182s81-182 180.5-182S668 391.1 668 491.5s-81 182-180.5 182z m0-319.9c-75.2 0-136.4 61.9-136.4 137.9s61.2 137.9 136.4 137.9 136.4-61.9 136.4-137.9c0-76.1-61.2-137.9-136.4-137.9z" fill="#3FBC7E" p-id="2747"></path><path d="M696.7 699.1l-84.8-84.3" fill="#3FBC7E" p-id="2748"></path><path d="M696.7 728.6c-7.5 0-15-2.8-20.7-8.6l-84.8-84.3c-11.5-11.4-11.6-30.1-0.1-41.6 11.4-11.5 30.1-11.6 41.6-0.1l84.8 84.3c11.5 11.4 11.6 30.1 0.1 41.6-5.8 5.8-13.4 8.7-20.9 8.7z" fill="#3FBC7E" p-id="2749"></path></svg>